<svg width="280" height="30" viewBox="0 0 280 30" fill="none" xmlns="http://www.w3.org/2000/svg">
<path d="M0 0.18576C11.1237 2.56546 17.022 6.06073 27.3855 7.1424C29.4167 7.3544 31.6194 7.47369 34.0667 7.47369C35.9893 7.47369 37.7881 7.35291 39.4921 7.1424C51.0232 5.71793 58.209 0.18576 70 0.18576C81.791 0.18576 90.0396 5.71793 100.301 7.1424C101.817 7.35291 103.378 7.47369 105 7.47369C106.622 7.47369 108.198 7.35291 109.739 7.1424C120.17 5.71793 129.022 0.18576 140 0.18576C150.978 0.18576 159.476 5.7179 170.124 7.1424C171.697 7.35291 173.318 7.47369 175 7.47369C176.682 7.47369 178.279 7.35291 179.815 7.1424C190.21 5.7179 197.802 0.18576 210 0.18576C222.198 0.18576 231.561 5.71793 240.869 7.1424C242.244 7.35291 243.618 7.47369 245 7.47369C246.382 7.47369 247.988 7.35291 249.738 7.1424C261.58 5.7179 280 0.18576 280 0.18576V30H0V0.18576Z" fill="#FEFEFE"/>
</svg>
