<svg width="151" height="48" viewBox="0 0 151 48" fill="none" xmlns="http://www.w3.org/2000/svg">
<path d="M45.8334 26.2141L49.0772 21.4038C50.0022 22.0739 50.8816 22.6244 51.7153 23.0551C52.5491 23.4739 53.3698 23.785 54.1775 23.9885C54.9853 24.1919 55.806 24.2936 56.6398 24.2936C57.5517 24.2936 58.3333 24.1859 58.9847 23.9705C59.6491 23.7432 60.1572 23.4261 60.509 23.0192C60.8737 22.6124 61.0561 22.1278 61.0561 21.5654C61.0561 20.9073 60.8151 20.3509 60.3331 19.8962C59.8511 19.4295 59.2127 19.0226 58.418 18.6756C57.6364 18.3167 56.7831 17.9637 55.8581 17.6167C54.9201 17.2577 53.9626 16.8688 52.9855 16.45C52.0215 16.0312 51.1356 15.5226 50.3279 14.9244C49.5202 14.3141 48.8623 13.5782 48.3542 12.7167C47.8592 11.8551 47.6116 10.8081 47.6116 9.57564C47.6116 7.94829 48.0546 6.55427 48.9405 5.39359C49.8394 4.22094 51.064 3.3235 52.6142 2.70128C54.1775 2.06709 55.9428 1.75 57.9099 1.75C59.343 1.75 60.8346 1.9235 62.3849 2.27051C63.9482 2.61752 65.5181 3.15598 67.0944 3.8859L64.4172 8.96538C63.4792 8.43889 62.4631 8.02607 61.3688 7.72692C60.2875 7.41581 59.2778 7.26026 58.3399 7.26026C57.5973 7.26026 56.9459 7.36197 56.3857 7.56538C55.8386 7.75684 55.4087 8.03205 55.096 8.39103C54.7964 8.75 54.6465 9.1688 54.6465 9.64744C54.6465 10.2577 54.881 10.7902 55.35 11.2449C55.832 11.6876 56.4574 12.0885 57.226 12.4474C57.9946 12.8064 58.8284 13.1714 59.7273 13.5423C60.6783 13.9132 61.6424 14.3261 62.6194 14.7808C63.6095 15.2355 64.5149 15.7739 65.3357 16.3962C66.1694 17.0064 66.8338 17.7423 67.3289 18.6038C67.837 19.4654 68.091 20.5004 68.091 21.709C68.091 23.3004 67.622 24.7064 66.684 25.9269C65.7591 27.1355 64.4563 28.0748 62.7758 28.7449C61.1082 29.415 59.1671 29.75 56.9524 29.75C54.9071 29.75 52.9399 29.4509 51.0509 28.8526C49.175 28.2423 47.4358 27.3628 45.8334 26.2141Z" fill="#1C1B1F"/>
<path d="M105.621 29.2115H86.0792V2.28846H92.9578V23.7013H105.621V29.2115Z" fill="#1C1B1F"/>
<path d="M142.075 9.55769C141.307 8.82778 140.369 8.26538 139.261 7.87051C138.154 7.46368 136.969 7.26026 135.705 7.26026C134.454 7.26026 133.321 7.45769 132.305 7.85256C131.289 8.24744 130.409 8.81581 129.667 9.55769C128.937 10.2876 128.37 11.1611 127.967 12.1782C127.576 13.1953 127.38 14.338 127.38 15.6064C127.38 16.8868 127.589 18.0594 128.006 19.1244C128.423 20.1774 129.009 21.0868 129.764 21.8526C130.533 22.6064 131.445 23.1927 132.5 23.6115C133.555 24.0303 134.728 24.2397 136.018 24.2397C137.034 24.2397 137.959 24.1081 138.792 23.8449C139.639 23.5697 140.382 23.1808 141.02 22.6782C141.672 22.1637 142.212 21.5415 142.642 20.8115C143.085 20.0816 143.404 19.256 143.6 18.3346H135.822V13.5244H149.638L149.833 15.9295C149.833 17.9756 149.495 19.8483 148.817 21.5474C148.14 23.2346 147.176 24.6944 145.925 25.9269C144.687 27.1474 143.209 28.0927 141.489 28.7628C139.77 29.4209 137.861 29.75 135.764 29.75C133.588 29.75 131.562 29.397 129.686 28.691C127.823 27.9731 126.188 26.9799 124.781 25.7115C123.387 24.4432 122.3 22.9594 121.518 21.2603C120.736 19.5491 120.345 17.6944 120.345 15.6962C120.345 13.7338 120.73 11.909 121.498 10.2218C122.267 8.52265 123.335 7.03889 124.703 5.77051C126.084 4.50214 127.693 3.51496 129.53 2.80897C131.38 2.10299 133.38 1.75 135.529 1.75C137.548 1.75 139.509 2.07308 141.411 2.71923C143.313 3.36538 145.02 4.28675 146.531 5.48333L142.075 9.55769Z" fill="#1C1B1F"/>
<path d="M47.1722 43.75V32.7637H50.6805C51.5887 32.7637 52.3676 32.9077 53.017 33.1958C53.6713 33.479 54.1718 33.8867 54.5184 34.4189C54.8651 34.9463 55.0385 35.5786 55.0385 36.3159C55.0385 37.0483 54.8651 37.6831 54.5184 38.2202C54.1718 38.7524 53.6713 39.1626 53.017 39.4507C52.3676 39.7388 51.5912 39.8828 50.6879 39.8828H48.7836V43.75H47.1722ZM48.7836 38.4619H50.5341C51.4471 38.4619 52.1503 38.2739 52.6434 37.8979C53.1415 37.5171 53.3905 36.9897 53.3905 36.3159C53.3905 35.6421 53.1415 35.1196 52.6434 34.7485C52.1503 34.3726 51.4471 34.1846 50.5341 34.1846H48.7836V38.4619ZM65.3117 42.8784C64.4035 43.5571 63.405 43.8965 62.3161 43.8965C61.5397 43.8965 60.8439 43.7256 60.2287 43.3838C59.6135 43.042 59.1276 42.5757 58.7712 41.9849C58.4147 41.394 58.2365 40.7275 58.2365 39.9854C58.2365 39.2773 58.4001 38.645 58.7272 38.0884C59.0544 37.5269 59.5011 37.085 60.0676 36.7627C60.634 36.4404 61.276 36.2793 61.9938 36.2793C62.736 36.2793 63.3879 36.4551 63.9494 36.8066C64.5158 37.1582 64.9552 37.6489 65.2677 38.2788C65.5851 38.9038 65.7438 39.6289 65.7438 40.4541V40.6885H59.8625C59.9504 41.0693 60.1164 41.4038 60.3605 41.6919C60.6047 41.9751 60.9074 42.1973 61.2687 42.3584C61.6301 42.5146 62.0378 42.5928 62.4919 42.5928C63.3024 42.5928 64.047 42.3291 64.7258 41.8018L65.3117 42.8784ZM59.7966 39.6484H64.3449C64.2961 39.2383 64.1691 38.8818 63.964 38.5791C63.759 38.2715 63.4928 38.0322 63.1657 37.8613C62.8434 37.6855 62.4797 37.5977 62.0744 37.5977C61.6642 37.5977 61.2956 37.6855 60.9684 37.8613C60.6413 38.0322 60.3752 38.2715 60.1701 38.5791C59.9699 38.8867 59.8454 39.2432 59.7966 39.6484ZM74.3398 43.5669C73.8271 43.7866 73.3315 43.8965 72.853 43.8965C72.3745 43.8965 71.9546 43.7939 71.5932 43.5889C71.2368 43.3838 70.956 43.0957 70.751 42.7246C70.5508 42.3486 70.4507 41.9165 70.4507 41.4282V37.7661H69.1689V36.4258H70.5239V34.5947H71.9521V36.4258H74.0908V37.7661H71.9521V41.1499C71.9521 41.5796 72.0669 41.9214 72.2964 42.1753C72.5307 42.4243 72.831 42.5488 73.1972 42.5488C73.5049 42.5488 73.81 42.4561 74.1128 42.2705L74.3398 43.5669ZM84.2808 42.644L85.0499 41.4062C85.377 41.6699 85.6968 41.8896 86.0093 42.0654C86.3267 42.2363 86.6466 42.3633 86.9688 42.4463C87.2911 42.5244 87.6207 42.5635 87.9576 42.5635C88.4166 42.5635 88.817 42.4902 89.1588 42.3438C89.5006 42.1973 89.7667 41.9922 89.9571 41.7285C90.1475 41.4648 90.2427 41.1621 90.2427 40.8203C90.2427 40.4346 90.1304 40.1147 89.9058 39.8608C89.6861 39.6069 89.398 39.3896 89.0416 39.209C88.6851 39.0234 88.3043 38.8477 87.899 38.6816C87.5426 38.5352 87.1861 38.3765 86.8297 38.2056C86.4781 38.0298 86.1558 37.8271 85.8629 37.5977C85.5748 37.3682 85.3428 37.0898 85.1671 36.7627C84.9962 36.4307 84.9107 36.0303 84.9107 35.5615C84.9107 34.9609 85.0621 34.4336 85.3648 33.9795C85.6676 33.5254 86.085 33.1738 86.6173 32.9248C87.1544 32.6758 87.772 32.5513 88.4703 32.5513C88.9439 32.5513 89.4273 32.6147 89.9205 32.7417C90.4185 32.8638 90.9044 33.0469 91.378 33.291L90.7261 34.6021C90.3843 34.4019 90.0206 34.2456 89.6348 34.1333C89.254 34.021 88.8853 33.9648 88.5289 33.9648C88.1383 33.9648 87.794 34.0283 87.4962 34.1553C87.2032 34.2822 86.9737 34.4604 86.8077 34.6899C86.6417 34.9194 86.5587 35.188 86.5587 35.4956C86.5587 35.8423 86.6636 36.1353 86.8736 36.3745C87.0836 36.6138 87.357 36.8237 87.6939 37.0044C88.0357 37.1802 88.397 37.3511 88.7779 37.5171C89.149 37.6831 89.5177 37.8589 89.8839 38.0444C90.255 38.2251 90.5894 38.4399 90.8873 38.689C91.19 38.938 91.4317 39.2358 91.6124 39.5825C91.7979 39.9243 91.8907 40.3369 91.8907 40.8203C91.8907 41.4502 91.7296 42.002 91.4073 42.4756C91.085 42.9443 90.6334 43.3105 90.0523 43.5742C89.4761 43.8379 88.7999 43.9697 88.0235 43.9697C87.335 43.9697 86.6759 43.8599 86.046 43.6401C85.421 43.4155 84.8326 43.0835 84.2808 42.644ZM96.3412 43.75V32.7637H97.8427V37.4438C98.3846 36.6675 99.2074 36.2793 100.311 36.2793C101.263 36.2793 102.008 36.5674 102.545 37.1436C103.082 37.7197 103.35 38.5229 103.35 39.5532V43.75H101.849V39.9194C101.849 39.1919 101.673 38.6279 101.322 38.2275C100.975 37.8271 100.489 37.627 99.8641 37.627C99.2343 37.627 98.7386 37.832 98.3773 38.2422C98.0209 38.6475 97.8427 39.2065 97.8427 39.9194V43.75H96.3412ZM114.554 42.8784C113.646 43.5571 112.647 43.8965 111.558 43.8965C110.782 43.8965 110.086 43.7256 109.471 43.3838C108.856 43.042 108.37 42.5757 108.013 41.9849C107.657 41.394 107.479 40.7275 107.479 39.9854C107.479 39.2773 107.642 38.645 107.969 38.0884C108.297 37.5269 108.743 37.085 109.31 36.7627C109.876 36.4404 110.518 36.2793 111.236 36.2793C111.978 36.2793 112.63 36.4551 113.192 36.8066C113.758 37.1582 114.197 37.6489 114.51 38.2788C114.827 38.9038 114.986 39.6289 114.986 40.4541V40.6885H109.105C109.193 41.0693 109.359 41.4038 109.603 41.6919C109.847 41.9751 110.15 42.1973 110.511 42.3584C110.872 42.5146 111.28 42.5928 111.734 42.5928C112.545 42.5928 113.289 42.3291 113.968 41.8018L114.554 42.8784ZM109.039 39.6484H113.587C113.538 39.2383 113.411 38.8818 113.206 38.5791C113.001 38.2715 112.735 38.0322 112.408 37.8613C112.086 37.6855 111.722 37.5977 111.317 37.5977C110.906 37.5977 110.538 37.6855 110.211 37.8613C109.883 38.0322 109.617 38.2715 109.412 38.5791C109.212 38.8867 109.088 39.2432 109.039 39.6484ZM120.857 43.75H119.261V32.4707H120.857V43.75ZM130.208 43.5669C129.695 43.7866 129.199 43.8965 128.721 43.8965C128.242 43.8965 127.823 43.7939 127.461 43.5889C127.105 43.3838 126.824 43.0957 126.619 42.7246C126.419 42.3486 126.319 41.9165 126.319 41.4282V37.7661H125.037V36.4258H126.392V34.5947H127.82V36.4258H129.959V37.7661H127.82V41.1499C127.82 41.5796 127.935 41.9214 128.164 42.1753C128.399 42.4243 128.699 42.5488 129.065 42.5488C129.373 42.5488 129.678 42.4561 129.981 42.2705L130.208 43.5669ZM140.92 42.8784C140.012 43.5571 139.014 43.8965 137.925 43.8965C137.149 43.8965 136.453 43.7256 135.837 43.3838C135.222 43.042 134.736 42.5757 134.38 41.9849C134.024 41.394 133.845 40.7275 133.845 39.9854C133.845 39.2773 134.009 38.645 134.336 38.0884C134.663 37.5269 135.11 37.085 135.676 36.7627C136.243 36.4404 136.885 36.2793 137.603 36.2793C138.345 36.2793 138.997 36.4551 139.558 36.8066C140.125 37.1582 140.564 37.6489 140.877 38.2788C141.194 38.9038 141.353 39.6289 141.353 40.4541V40.6885H135.471C135.559 41.0693 135.725 41.4038 135.969 41.6919C136.213 41.9751 136.516 42.1973 136.878 42.3584C137.239 42.5146 137.647 42.5928 138.101 42.5928C138.911 42.5928 139.656 42.3291 140.335 41.8018L140.92 42.8784ZM135.405 39.6484H139.954C139.905 39.2383 139.778 38.8818 139.573 38.5791C139.368 38.2715 139.102 38.0322 138.774 37.8613C138.452 37.6855 138.088 37.5977 137.683 37.5977C137.273 37.5977 136.904 37.6855 136.577 37.8613C136.25 38.0322 135.984 38.2715 135.779 38.5791C135.579 38.8867 135.454 39.2432 135.405 39.6484ZM147.129 43.75H145.627V36.4258H146.938L146.997 37.8174C147.251 37.334 147.6 36.958 148.044 36.6895C148.494 36.416 149.009 36.2793 149.59 36.2793C149.731 36.2793 149.873 36.2891 150.015 36.3086C150.161 36.3232 150.307 36.3477 150.454 36.3818L150.264 37.7368C149.98 37.6636 149.702 37.627 149.429 37.627C148.974 37.627 148.574 37.7368 148.227 37.9565C147.881 38.1714 147.61 38.4692 147.414 38.8501C147.224 39.231 147.129 39.6704 147.129 40.1685V43.75Z" fill="#1C1B1F"/>
<path d="M0 18.75L20.8333 0L29.1667 7.5V2.08333H35.4167V13.125L41.6667 18.75H35.4167L33.7121 17.2159L20.8333 5.625L6.25 18.75H0Z" fill="#1C1B1F"/>
<path d="M9.22698 43.75H35.4167V32L33.7121 32.75L29.1667 34.75V39.25H15.7846L9.22698 43.75Z" fill="#1C1B1F"/>
<path d="M35.4167 32V18.75L33.7121 17.2159V32.75L35.4167 32Z" fill="#1C1B1F"/>
<path d="M2.83333 41.5441C2.19917 41.0444 1.83329 40.25 2.33331 39.75C2.83333 39.25 3.19038 38.9482 4.1471 39.4844C5.10382 40.0207 5.25233 40.2888 5.78617 40.5813C6.32836 40.8657 6.87472 41.0769 7.42525 41.215C7.97578 41.345 8.53882 41.41 9.11437 41.41C9.89846 41.41 10.5825 41.2882 11.1663 41.0444C11.7502 40.8007 12.2048 40.4594 12.5302 40.0207C12.8555 39.5819 13.0181 39.0782 13.0181 38.5095C13.0181 37.8676 12.8263 37.3354 12.4426 36.9129C12.0672 36.4904 11.5751 36.1289 10.9662 35.8283C10.3572 35.5195 9.70661 35.227 9.01428 34.9508C8.40536 34.707 7.79644 34.443 7.18752 34.1586C6.58694 33.8661 6.03641 33.5289 5.53593 33.147C5.04379 32.7652 4.64758 32.3021 4.34729 31.7577C4.05534 31.2052 3.90937 30.539 3.90937 29.759C3.90937 28.7596 4.16795 27.8821 4.68511 27.1265C5.20228 26.3709 5.91546 25.7859 6.82467 25.3716C7.74222 24.9572 8.7974 24.75 9.99022 24.75C10.7993 24.75 11.6251 24.8556 12.4676 25.0669C13.3184 25.27 15.5242 26.3438 16.3333 26.75L14.3333 28.3087C13.7494 27.9756 12.6386 27.5693 11.9796 27.3825C11.329 27.1956 10.6992 27.1021 10.0903 27.1021C9.423 27.1021 8.83494 27.2078 8.32612 27.419C7.82563 27.6303 7.43359 27.9268 7.14998 28.3087C6.86638 28.6906 6.72458 29.1374 6.72458 29.6493C6.72458 30.2262 6.90391 30.7137 7.26259 31.1118C7.62127 31.5099 8.08839 31.8593 8.66394 32.1599C9.24784 32.4524 9.8651 32.7367 10.5157 33.013C11.1497 33.2892 11.7794 33.5817 12.405 33.8905C13.039 34.1911 13.6104 34.5486 14.1192 34.963C14.6363 35.3773 15.0492 35.8729 15.3579 36.4498C15.6748 37.0185 15.8333 37.7051 15.8333 38.5095C15.8333 39.5576 15.5581 40.4757 15.0075 41.2638C14.457 42.0438 13.6854 42.6531 12.6928 43.0919C11.7085 43.5306 10.5533 43.75 9.22698 43.75C8.05085 43.75 6.92477 43.5672 5.84873 43.2016C4.78104 42.8278 3.46749 42.0438 2.83333 41.5441Z" fill="#1C1B1F"/>
<path d="M14.125 23.1143C13.4834 23.1143 12.941 22.8927 12.498 22.4497C12.0549 22.0066 11.8334 21.4643 11.8334 20.8226C11.8334 20.1809 12.0549 19.6386 12.498 19.1955C12.941 18.7525 13.4834 18.5309 14.125 18.5309C14.7667 18.5309 15.3091 18.7525 15.7521 19.1955C16.1952 19.6386 16.4167 20.1809 16.4167 20.8226C16.4167 21.4643 16.1952 22.0066 15.7521 22.4497C15.3091 22.8927 14.7667 23.1143 14.125 23.1143ZM18.25 19.4476C17.6084 19.4476 17.066 19.2261 16.623 18.783C16.1799 18.34 15.9584 17.7976 15.9584 17.1559C15.9584 16.5143 16.1799 15.9719 16.623 15.5288C17.066 15.0858 17.6084 14.8643 18.25 14.8643C18.8917 14.8643 19.4341 15.0858 19.8771 15.5288C20.3202 15.9719 20.5417 16.5143 20.5417 17.1559C20.5417 17.7976 20.3202 18.34 19.8771 18.783C19.4341 19.2261 18.8917 19.4476 18.25 19.4476ZM23.75 19.4476C23.1084 19.4476 22.566 19.2261 22.123 18.783C21.6799 18.34 21.4584 17.7976 21.4584 17.1559C21.4584 16.5143 21.6799 15.9719 22.123 15.5288C22.566 15.0858 23.1084 14.8643 23.75 14.8643C24.3917 14.8643 24.9341 15.0858 25.3771 15.5288C25.8202 15.9719 26.0417 16.5143 26.0417 17.1559C26.0417 17.7976 25.8202 18.34 25.3771 18.783C24.9341 19.2261 24.3917 19.4476 23.75 19.4476ZM27.875 23.1143C27.2334 23.1143 26.691 22.8927 26.248 22.4497C25.8049 22.0066 25.5834 21.4643 25.5834 20.8226C25.5834 20.1809 25.8049 19.6386 26.248 19.1955C26.691 18.7525 27.2334 18.5309 27.875 18.5309C28.5167 18.5309 29.0591 18.7525 29.5021 19.1955C29.9452 19.6386 30.1667 20.1809 30.1667 20.8226C30.1667 21.4643 29.9452 22.0066 29.5021 22.4497C29.0591 22.8927 28.5167 23.1143 27.875 23.1143ZM16.0959 32.2809C15.4084 32.2809 14.8318 32.0172 14.3661 31.4898C13.8998 30.9631 13.6667 30.3406 13.6667 29.6226C13.6667 28.8281 13.938 28.133 14.4807 27.5372C15.0228 26.9413 15.5612 26.3531 16.0959 25.7726C16.5389 25.299 16.9209 24.7832 17.2417 24.2253C17.5625 23.6679 17.9445 23.1448 18.3875 22.6559C18.7237 22.2587 19.1132 21.9302 19.5563 21.6705C19.9993 21.4108 20.4806 21.2809 21 21.2809C21.5195 21.2809 22.0007 21.4031 22.4438 21.6476C22.8868 21.892 23.2764 22.2129 23.6125 22.6101C24.0403 23.099 24.4183 23.6261 24.7465 24.1913C25.0752 24.7566 25.4612 25.2837 25.9042 25.7726C26.4389 26.3531 26.9776 26.9413 27.5203 27.5372C28.0623 28.133 28.3334 28.8281 28.3334 29.6226C28.3334 30.3406 28.1005 30.9631 27.6349 31.4898C27.1686 32.0172 26.5917 32.2809 25.9042 32.2809C25.0792 32.2809 24.2618 32.2122 23.4521 32.0747C22.6424 31.9372 21.825 31.8684 21 31.8684C20.175 31.8684 19.3577 31.9372 18.548 32.0747C17.7382 32.2122 16.9209 32.2809 16.0959 32.2809Z" fill="#1C1B1F"/>
</svg>
