<svg width="48" height="48" viewBox="0 0 48 48" fill="none" xmlns="http://www.w3.org/2000/svg">
<mask id="mask0_29_143" style="mask-type:alpha" maskUnits="userSpaceOnUse" x="0" y="0" width="48" height="48">
<rect width="48" height="48" fill="#D9D9D9"/>
</mask>
<g mask="url(#mask0_29_143)">
<path d="M31.9 24.4501C30.3334 23.1168 28.8834 21.8168 27.55 20.5501C26.2167 19.2834 25.05 18.0501 24.05 16.8501C23.05 15.6501 22.2584 14.4918 21.675 13.3751C21.0917 12.2584 20.8 11.2001 20.8 10.2001C20.8 8.63343 21.3417 7.30843 22.425 6.2251C23.5084 5.14176 24.8334 4.6001 26.4 4.6001C27.3334 4.6001 28.2834 4.8751 29.25 5.4251C30.2167 5.9751 31.1 6.76676 31.9 7.8001C32.6667 6.76676 33.5334 5.9751 34.5 5.4251C35.4667 4.8751 36.4167 4.6001 37.35 4.6001C38.9167 4.6001 40.2417 5.14176 41.3251 6.2251C42.4084 7.30843 42.9501 8.63343 42.9501 10.2001C42.9501 11.2001 42.6584 12.2584 42.0751 13.3751C41.4917 14.4918 40.7001 15.6501 39.7001 16.8501C38.7001 18.0501 37.525 19.2834 36.175 20.5501C34.825 21.8168 33.4 23.1168 31.9 24.4501ZM31.9 21.3001C34.1667 19.3001 36.2001 17.3168 38 15.3501C39.8 13.3834 40.7001 11.6668 40.7001 10.2001C40.7001 9.23343 40.3917 8.44176 39.7751 7.8251C39.1584 7.20843 38.3667 6.9001 37.4001 6.9001C36.8001 6.9001 36.1917 7.05843 35.5751 7.3751C34.9584 7.69176 34.2834 8.3001 33.55 9.2001L31.9 11.3001L30.2001 9.2001C29.4667 8.3001 28.7834 7.69176 28.15 7.3751C27.5167 7.05843 26.9334 6.9001 26.4 6.9001C25.4 6.9001 24.5917 7.20843 23.975 7.8251C23.3584 8.44176 23.05 9.23343 23.05 10.2001C23.05 11.6668 23.9501 13.3834 25.75 15.3501C27.55 17.3168 29.6 19.3001 31.9 21.3001ZM27.9 43.5001L12.15 38.9501V41.6501H3.05005V24.2001H17.05L29.55 28.8501C30.3167 29.1168 30.9667 29.5834 31.5 30.2501C32.0334 30.9168 32.3 31.9001 32.3 33.2001H38.6C39.8334 33.2001 40.8167 33.6501 41.55 34.5501C42.2834 35.4501 42.6501 36.6668 42.6501 38.2001V38.9501L27.9 43.5001ZM5.30005 39.4001H9.80005V26.4501H5.30005V39.4001ZM27.7001 41.1501L40.3 37.3001C40.1667 36.6668 39.9584 36.2084 39.675 35.9251C39.3917 35.6418 39.0334 35.5001 38.6 35.5001H28.55C27.6167 35.5001 26.7084 35.4334 25.8251 35.3001C24.9417 35.1668 24.1501 34.9834 23.4501 34.7501L19.35 33.5001L20.25 31.2501L23.9 32.5001C24.7 32.7668 25.4917 32.9501 26.275 33.0501C27.0584 33.1501 28.2667 33.2001 29.9 33.2001C29.9 32.7001 29.8167 32.2501 29.65 31.8501C29.4834 31.4501 29.2 31.1668 28.8 31.0001L16.7 26.4501H12.15V36.5501L27.7001 41.1501Z" fill="#1C1B1F"/>
</g>
</svg>
