<svg width="280" height="150" viewBox="0 0 280 150" fill="none" xmlns="http://www.w3.org/2000/svg">
<path d="M0 0C11.1237 2.3797 17.022 5.87497 27.3855 6.95663C29.4167 7.16864 31.6194 7.28793 34.0667 7.28793C35.9893 7.28793 37.7881 7.16713 39.4921 6.95663C51.0232 5.53217 58.209 0 70 0C81.791 0 90.0396 5.53217 100.301 6.95663C101.817 7.16713 103.378 7.28793 105 7.28793C106.622 7.28793 108.198 7.16713 109.739 6.95663C120.17 5.53217 129.022 0 140 0C150.978 0 159.476 5.53214 170.124 6.95663C171.697 7.16713 173.318 7.28793 175 7.28793C176.682 7.28793 178.279 7.16713 179.815 6.95663C190.21 5.53214 197.802 0 210 0C222.198 0 231.561 5.53217 240.869 6.95663C242.244 7.16713 243.618 7.28793 245 7.28793C246.382 7.28793 247.988 7.16713 249.738 6.95663C261.58 5.53214 280 0 280 0V150H0V0Z" fill="#FEFEFE"/>
</svg>
