<svg width="280" height="441" viewBox="0 0 280 441" fill="none" xmlns="http://www.w3.org/2000/svg">
<path d="M0 291C11.1237 293.38 17.022 296.875 27.3855 297.957C29.4167 298.169 31.6194 298.288 34.0667 298.288C35.9893 298.288 37.7881 298.167 39.4921 297.957C51.0232 296.532 58.209 291 70 291C81.791 291 90.0396 296.532 100.301 297.957C101.817 298.167 103.378 298.288 105 298.288C106.622 298.288 108.198 298.167 109.739 297.957C120.17 296.532 129.022 291 140 291C150.978 291 159.476 296.532 170.124 297.957C171.697 298.167 173.318 298.288 175 298.288C176.682 298.288 178.279 298.167 179.815 297.957C190.21 296.532 197.802 291 210 291C222.198 291 231.561 296.532 240.869 297.957C242.244 298.167 243.618 298.288 245 298.288C246.382 298.288 247.988 298.167 249.738 297.957C261.58 296.532 280 291 280 291V441H0V291Z" fill="#FEFEFE"/>
</svg>
