<svg width="101" height="101" viewBox="0 0 101 101" fill="none" xmlns="http://www.w3.org/2000/svg">
<circle cx="50.5" cy="50.5" r="48" stroke="#EE8C31" stroke-width="5"/>
<path d="M42.3181 63.3765V62.2898C42.3394 58.5611 42.6697 55.5888 43.3089 53.3729C43.9694 51.157 44.9282 49.3673 46.1853 48.0036C47.4424 46.64 48.9552 45.4042 50.7237 44.2962C52.0447 43.444 53.2272 42.5597 54.2712 41.6435C55.3153 40.7273 56.1462 39.7153 56.7641 38.6073C57.382 37.4781 57.691 36.2209 57.691 34.836C57.691 33.3658 57.3394 32.0768 56.6363 30.9688C55.9332 29.8609 54.985 29.0086 53.7918 28.412C52.62 27.8154 51.3202 27.5171 49.8927 27.5171C48.5077 27.5171 47.1974 27.8261 45.9616 28.444C44.7258 29.0406 43.7137 29.9354 42.9254 31.1286C42.137 32.3005 41.7109 33.76 41.647 35.5072H28.6072C28.7137 31.2458 29.7364 27.7302 31.6754 24.9603C33.6143 22.1691 36.1818 20.0917 39.3778 18.728C42.5738 17.3431 46.1001 16.6506 49.9566 16.6506C54.1967 16.6506 57.9467 17.3538 61.2066 18.76C64.4666 20.145 67.0234 22.1584 68.8771 24.8005C70.7308 27.4425 71.6576 30.6279 71.6576 34.3566C71.6576 36.8495 71.2421 39.0654 70.4112 41.0043C69.6015 42.9219 68.4616 44.6265 66.9914 46.118C65.5212 47.5881 63.7847 48.9198 61.7819 50.113C60.0987 51.1144 58.7137 52.1584 57.6271 53.2451C56.5617 54.3317 55.7627 55.5888 55.23 57.0164C54.7187 58.444 54.4523 60.2018 54.431 62.2898V63.3765H42.3181ZM48.6462 83.831C46.5156 83.831 44.6938 83.0853 43.181 81.5938C41.6896 80.081 40.9545 78.27 40.9758 76.1606C40.9545 74.0725 41.6896 72.2827 43.181 70.7913C44.6938 69.2998 46.5156 68.554 48.6462 68.554C50.6704 68.554 52.4495 69.2998 53.9836 70.7913C55.5177 72.2827 56.2954 74.0725 56.3167 76.1606C56.2954 77.5668 55.9225 78.8559 55.1981 80.0278C54.495 81.1783 53.5681 82.1052 52.4175 82.8083C51.267 83.4901 50.0099 83.831 48.6462 83.831Z" fill="#EE8C31"/>
</svg>
