<svg width="48" height="48" viewBox="0 0 48 48" fill="none" xmlns="http://www.w3.org/2000/svg">
<mask id="mask0_29_135" style="mask-type:alpha" maskUnits="userSpaceOnUse" x="0" y="0" width="48" height="48">
<rect width="48" height="48" fill="#D9D9D9"/>
</mask>
<g mask="url(#mask0_29_135)">
<path d="M21.75 35.9L15.45 29.65L17.05 28.1L21.75 32.7L30.75 23.65L32.35 25.3L21.75 35.9ZM9.9 43C9.1 43 8.41667 42.7167 7.85 42.15C7.28333 41.5833 7 40.9 7 40.1V11.15C7 10.3833 7.28333 9.70833 7.85 9.125C8.41667 8.54167 9.1 8.25 9.9 8.25H13.6V4.75H16.1V8.25H32V4.75H34.45V8.25H38.1C38.9 8.25 39.5833 8.54167 40.15 9.125C40.7167 9.70833 41 10.3833 41 11.15V40.1C41 40.9 40.7167 41.5833 40.15 42.15C39.5833 42.7167 38.9 43 38.1 43H9.9ZM9.9 40.75H38.1C38.2667 40.75 38.4167 40.6833 38.55 40.55C38.6833 40.4167 38.75 40.2667 38.75 40.1V20.25H9.25V40.1C9.25 40.2667 9.31667 40.4167 9.45 40.55C9.58333 40.6833 9.73333 40.75 9.9 40.75ZM9.25 18H38.75V11.15C38.75 10.9833 38.6833 10.8417 38.55 10.725C38.4167 10.6083 38.2667 10.55 38.1 10.55H9.9C9.73333 10.55 9.58333 10.6083 9.45 10.725C9.31667 10.8417 9.25 10.9833 9.25 11.15V18Z" fill="#1C1B1F"/>
</g>
</svg>
